<svg width="130" height="200" viewBox="0 0 130 200" fill="none" xmlns="http://www.w3.org/2000/svg">
<rect width="130" height="200" fill="#CBD5E1"/>
<path d="M42.3253 95.2727V104H40.7443V96.8111H40.6932L38.652 98.1151V96.6662L40.821 95.2727H42.3253ZM47.6733 104.119C47.0597 104.119 46.5142 104.014 46.0369 103.804C45.5625 103.594 45.1875 103.301 44.9119 102.926C44.6364 102.551 44.4901 102.118 44.473 101.626H46.0753C46.0895 101.862 46.1676 102.068 46.3097 102.244C46.4517 102.418 46.6406 102.553 46.8764 102.649C47.1122 102.746 47.3764 102.794 47.669 102.794C47.9815 102.794 48.2585 102.74 48.5 102.632C48.7415 102.521 48.9304 102.368 49.0668 102.172C49.2031 101.976 49.2699 101.75 49.267 101.494C49.2699 101.23 49.2017 100.997 49.0625 100.795C48.9233 100.594 48.7216 100.436 48.4574 100.322C48.196 100.209 47.8807 100.152 47.5114 100.152H46.7401V98.9332H47.5114C47.8153 98.9332 48.081 98.8807 48.3082 98.7756C48.5384 98.6705 48.7188 98.5227 48.8494 98.3324C48.9801 98.1392 49.044 97.9162 49.0412 97.6634C49.044 97.4162 48.9886 97.2017 48.875 97.0199C48.7642 96.8352 48.6065 96.6918 48.402 96.5895C48.2003 96.4872 47.9631 96.4361 47.6903 96.4361C47.4233 96.4361 47.1761 96.4844 46.9489 96.581C46.7216 96.6776 46.5384 96.8153 46.3991 96.9943C46.2599 97.1705 46.1861 97.3807 46.1776 97.625H44.6562C44.6676 97.1364 44.8082 96.7074 45.0781 96.3381C45.3509 95.9659 45.7145 95.6761 46.169 95.4688C46.6236 95.2585 47.1335 95.1534 47.6989 95.1534C48.2813 95.1534 48.7869 95.2628 49.2159 95.4815C49.6477 95.6974 49.9815 95.9886 50.2173 96.3551C50.4531 96.7216 50.571 97.1264 50.571 97.5696C50.5739 98.0611 50.429 98.473 50.1364 98.8054C49.8466 99.1378 49.4659 99.3551 48.9943 99.4574V99.5256C49.608 99.6108 50.0781 99.8381 50.4048 100.207C50.7344 100.574 50.8977 101.03 50.8949 101.575C50.8949 102.064 50.7557 102.501 50.4773 102.888C50.2017 103.271 49.821 103.572 49.3352 103.791C48.8523 104.01 48.2983 104.119 47.6733 104.119ZM55.5835 104.166C54.8817 104.166 54.2795 103.989 53.7766 103.634C53.2766 103.276 52.8917 102.76 52.6218 102.087C52.3548 101.411 52.2212 100.597 52.2212 99.6449C52.2241 98.6932 52.359 97.8835 52.6261 97.2159C52.896 96.5455 53.2809 96.0341 53.7809 95.6818C54.2837 95.3295 54.8846 95.1534 55.5835 95.1534C56.2823 95.1534 56.8832 95.3295 57.386 95.6818C57.8888 96.0341 58.2738 96.5455 58.5408 97.2159C58.8107 97.8864 58.9457 98.696 58.9457 99.6449C58.9457 100.599 58.8107 101.415 58.5408 102.091C58.2738 102.764 57.8888 103.278 57.386 103.634C56.886 103.989 56.2852 104.166 55.5835 104.166ZM55.5835 102.832C56.1289 102.832 56.5593 102.564 56.8746 102.027C57.1928 101.487 57.3519 100.693 57.3519 99.6449C57.3519 98.9517 57.2795 98.3693 57.1346 97.8977C56.9897 97.4261 56.7852 97.071 56.521 96.8324C56.2567 96.5909 55.9442 96.4702 55.5835 96.4702C55.0408 96.4702 54.6119 96.7401 54.2965 97.2798C53.9812 97.8168 53.8221 98.6051 53.8192 99.6449C53.8164 100.341 53.886 100.926 54.0281 101.401C54.1729 101.875 54.3775 102.233 54.6417 102.474C54.9059 102.713 55.2198 102.832 55.5835 102.832ZM65.6413 102.67L60.6428 97.6804L61.6058 96.7131L66.6001 101.707L65.6413 102.67ZM61.6058 102.67L60.6428 101.707L65.6413 96.7131L66.6001 97.6804L61.6058 102.67ZM68.4357 104V102.858L71.4656 99.8878C71.7553 99.5952 71.9968 99.3352 72.19 99.108C72.3832 98.8807 72.5281 98.6605 72.6246 98.4474C72.7212 98.2344 72.7695 98.0071 72.7695 97.7656C72.7695 97.4901 72.707 97.2543 72.582 97.0582C72.457 96.8594 72.2852 96.706 72.0664 96.598C71.8477 96.4901 71.5991 96.4361 71.3207 96.4361C71.0337 96.4361 70.7823 96.4957 70.5664 96.6151C70.3505 96.7315 70.1829 96.8977 70.0636 97.1136C69.9471 97.3295 69.8888 97.5866 69.8888 97.8849H68.3846C68.3846 97.331 68.511 96.8494 68.7638 96.4403C69.0167 96.0312 69.3647 95.7145 69.8079 95.4901C70.2539 95.2656 70.7653 95.1534 71.342 95.1534C71.9272 95.1534 72.4414 95.2628 72.8846 95.4815C73.3278 95.7003 73.6715 96 73.9158 96.3807C74.163 96.7614 74.2866 97.196 74.2866 97.6847C74.2866 98.0114 74.2241 98.3324 74.0991 98.6477C73.9741 98.9631 73.7539 99.3125 73.4386 99.696C73.1261 100.08 72.6871 100.544 72.1218 101.089L70.6175 102.619V102.679H74.4187V104H68.4357ZM79.1147 104.166C78.413 104.166 77.8107 103.989 77.3079 103.634C76.8079 103.276 76.4229 102.76 76.1531 102.087C75.886 101.411 75.7525 100.597 75.7525 99.6449C75.7553 98.6932 75.8903 97.8835 76.1573 97.2159C76.4272 96.5455 76.8121 96.0341 77.3121 95.6818C77.815 95.3295 78.4158 95.1534 79.1147 95.1534C79.8136 95.1534 80.4144 95.3295 80.9173 95.6818C81.4201 96.0341 81.805 96.5455 82.0721 97.2159C82.342 97.8864 82.4769 98.696 82.4769 99.6449C82.4769 100.599 82.342 101.415 82.0721 102.091C81.805 102.764 81.4201 103.278 80.9173 103.634C80.4173 103.989 79.8164 104.166 79.1147 104.166ZM79.1147 102.832C79.6602 102.832 80.0906 102.564 80.4059 102.027C80.7241 101.487 80.8832 100.693 80.8832 99.6449C80.8832 98.9517 80.8107 98.3693 80.6658 97.8977C80.521 97.4261 80.3164 97.071 80.0522 96.8324C79.788 96.5909 79.4755 96.4702 79.1147 96.4702C78.5721 96.4702 78.1431 96.7401 77.8278 97.2798C77.5124 97.8168 77.3533 98.6051 77.3505 99.6449C77.3477 100.341 77.4173 100.926 77.5593 101.401C77.7042 101.875 77.9087 102.233 78.1729 102.474C78.4371 102.713 78.7511 102.832 79.1147 102.832ZM87.1186 104.166C86.4169 104.166 85.8146 103.989 85.3118 103.634C84.8118 103.276 84.4268 102.76 84.157 102.087C83.8899 101.411 83.7564 100.597 83.7564 99.6449C83.7592 98.6932 83.8942 97.8835 84.1612 97.2159C84.4311 96.5455 84.8161 96.0341 85.3161 95.6818C85.8189 95.3295 86.4197 95.1534 87.1186 95.1534C87.8175 95.1534 88.4183 95.3295 88.9212 95.6818C89.424 96.0341 89.8089 96.5455 90.076 97.2159C90.3459 97.8864 90.4808 98.696 90.4808 99.6449C90.4808 100.599 90.3459 101.415 90.076 102.091C89.8089 102.764 89.424 103.278 88.9212 103.634C88.4212 103.989 87.8203 104.166 87.1186 104.166ZM87.1186 102.832C87.6641 102.832 88.0945 102.564 88.4098 102.027C88.728 101.487 88.8871 100.693 88.8871 99.6449C88.8871 98.9517 88.8146 98.3693 88.6697 97.8977C88.5249 97.4261 88.3203 97.071 88.0561 96.8324C87.7919 96.5909 87.4794 96.4702 87.1186 96.4702C86.576 96.4702 86.147 96.7401 85.8317 97.2798C85.5163 97.8168 85.3572 98.6051 85.3544 99.6449C85.3516 100.341 85.4212 100.926 85.5632 101.401C85.7081 101.875 85.9126 102.233 86.1768 102.474C86.4411 102.713 86.755 102.832 87.1186 102.832Z" fill="#1E293B"/>
</svg>
